<?xml version="1.0" encoding="UTF-8" standalone="no"?>
<!-- Created with Inkscape (http://www.inkscape.org/) -->

<svg
   xmlns:dc="http://purl.org/dc/elements/1.1/"
   xmlns:cc="http://creativecommons.org/ns#"
   xmlns:rdf="http://www.w3.org/1999/02/22-rdf-syntax-ns#"
   xmlns:svg="http://www.w3.org/2000/svg"
   xmlns="http://www.w3.org/2000/svg"
   xmlns:sodipodi="http://sodipodi.sourceforge.net/DTD/sodipodi-0.dtd"
   xmlns:inkscape="http://www.inkscape.org/namespaces/inkscape"
   width="318.89764"
   height="318.89764"
   id="svg2"
   version="1.1"
   inkscape:version="0.92.4 5da689c313, 2019-01-14"
   sodipodi:docname="no_profile.svg">
  <defs
     id="defs4">
    <linearGradient
       id="linearGradient4210">
      <stop
         style="stop-color:#bd1015;stop-opacity:1;"
         offset="0"
         id="stop4212" />
      <stop
         id="stop4218"
         offset="0.5"
         style="stop-color:#bd1015;stop-opacity:0.49803922;" />
      <stop
         style="stop-color:#bd1015;stop-opacity:0;"
         offset="1"
         id="stop4214" />
    </linearGradient>
  </defs>
  <sodipodi:namedview
     id="base"
     pagecolor="#000000"
     bordercolor="#666666"
     borderopacity="1.0"
     inkscape:pageopacity="0.0"
     inkscape:pageshadow="2"
     inkscape:zoom="1.175194"
     inkscape:cx="135.23118"
     inkscape:cy="186.90233"
     inkscape:document-units="px"
     inkscape:current-layer="layer1"
     showgrid="false"
     units="mm"
     inkscape:window-width="1342"
     inkscape:window-height="714"
     inkscape:window-x="10"
     inkscape:window-y="40"
     inkscape:window-maximized="0"
     fit-margin-top="0"
     fit-margin-left="0"
     fit-margin-right="0"
     fit-margin-bottom="0" />
  <metadata
     id="metadata7">
    <rdf:RDF>
      <cc:Work
         rdf:about="">
        <dc:format>image/svg+xml</dc:format>
        <dc:type
           rdf:resource="http://purl.org/dc/dcmitype/StillImage" />
        <dc:title />
      </cc:Work>
    </rdf:RDF>
  </metadata>
  <g
     inkscape:label="vector draw"
     inkscape:groupmode="layer"
     id="layer1"
     transform="translate(-9.9999997,-723.46455)"
     style="display:inline">
    <g
       id="g3848"
       transform="matrix(0.33539113,0.47128638,-0.47128638,0.33539113,121.53252,696.48469)"
       style="fill:#e8e8e8;fill-opacity:1;display:inline">
      <path
         transform="matrix(0.69695424,0,0,0.69695424,107.01816,136.7659)"
         d="m 414.28571,396.64789 c 0,38.65993 -31.34007,70 -70,70 -38.65994,0 -70,-31.34007 -70,-70 0,-38.65993 31.34006,-70 70,-70 38.65993,0 70,31.34007 70,70 z"
         sodipodi:ry="70"
         sodipodi:rx="70"
         sodipodi:cy="396.64789"
         sodipodi:cx="344.28571"
         id="path3812"
         style="fill:#e8e8e8;fill-opacity:1;stroke:none"
         sodipodi:type="arc" />
      <path
         inkscape:connector-curvature="0"
         id="path3814"
         d="m 357.125,75.21875 c -88.70625,0 -167.24803,33.72297 -215.5,85.5625 l 40,61.65625 c 35.1157,-46.92077 100.54558,-78.46875 175.5,-78.46875 69.39712,0 130.63979,27.06257 167.21875,68.3125 L 565.8125,153.75 C 517.15423,105.90176 441.76173,75.21875 357.125,75.21875 z"
         style="fill:#e8e8e8;fill-opacity:1;stroke:none" />
      <path
         inkscape:connector-curvature="0"
         id="path3822"
         d="m 350,229.5 c -50.45667,0 -96.51719,18.78113 -131.5625,49.6875 l 33.78125,52.09375 C 278.62505,309.04597 312.73394,295.625 350,295.625 c 34.98396,0 67.17684,11.81479 92.84375,31.65625 l 35.84375,-50.625 C 444.0107,247.23634 399.08938,229.5 350,229.5 z"
         style="fill:#e8e8e8;fill-opacity:1;stroke:none" />
      <path
         inkscape:connector-curvature="0"
         style="fill:#e8e8e8;fill-opacity:1;stroke:none"
         d="m 372.15625,138.25 c -116.58406,0 -221.30767,45.12743 -293.4375,116.8125 l 37.90625,58.40625 c 53.30072,-61.70409 147.01391,-102.6875 253.78125,-102.6875 105.94617,0 199.07205,40.33953 252.59375,101.25 L 664.3125,253.75 C 592.20544,182.82091 488.03965,138.25 372.15625,138.25 z"
         transform="translate(-16.162441,-216.17265)"
         id="path3824" />
    </g>
    <g
       id="g7703"
       transform="matrix(2,0,0,2,-269.01547,-1021.8677)"
       style="fill:#aa0000">
      <rect
         transform="rotate(-45)"
         y="834.65582"
         x="-530.57892"
         height="93.629501"
         width="24.639343"
         id="rect7695"
         style="fill:#aa0000" />
    </g>
    <g
       id="g7707"
       transform="matrix(2,0,0,2,-271.27604,-1021.6427)"
       style="fill:#aa0000">
      <g
         transform="translate(-0.40308326,0.47892948)"
         id="g7700"
         style="fill:#aa0000">
        <rect
           transform="matrix(-0.70710678,-0.70710678,-0.70710678,0.70710678,0,0)"
           y="471.01904"
           x="-894.2157"
           height="93.629501"
           width="24.639343"
           id="rect7697"
           style="fill:#aa0000" />
      </g>
    </g>
  </g>
</svg>
